<svg width="512" height="512" version="1.1" viewBox="0 0 512 512" xml:space="preserve" xmlns="http://www.w3.org/2000/svg"><g transform="matrix(2.82 0 0 2.77 -37.8 -83.8)"><path d="m94.6 206c-25.4-1.13-49-13.4-63.9-33.4-6.77-9.07-11.5-19.2-14.3-30.5-4.06-16.7-2.91-34.8 3.22-50.9 10.8-28.5 35.8-48.5 66.1-52.9 7.85-1.15 16.9-1.15 24.8-.0035 11.7 1.69 23.2 5.89 33.1 12.1 24.3 15.2 38.9 42 38.9 71.2 0 25.1-10.9 49-29.7 64.8-12.6 10.6-28 17.2-44.7 19.1-2.53.289-9.01.671-10.4.614-.309-.0125-1.79-.077-3.29-.143zm11.1-9.36c21.2-2.26 39.6-12.5 52.1-29.1 7.71-10.2 12.9-23 14.5-35.8.64-5.11.812-11.7.423-16.3-1.35-16-7.33-30.6-17.3-42.5-1.8-2.13-5.43-5.81-7.71-7.82-9.22-8.1-20.8-14-33-16.7-5.46-1.23-9.51-1.7-15.5-1.81-9.58-.178-17.4.984-26 3.87-12.6 4.25-23.3 11.3-32.2 21.4-16.1 18.3-22.2 44.3-16.2 68.5 6.79 27.4 28.1 48.3 55.9 54.6 3.86.874 7.97 1.48 12.1 1.78 2.69.198 10.1.0637 12.9-.233z" stroke-width=".16"/><g stroke-width=".265"><path d="m129 192s12-16.5 11.9-19.2-10.7-16.7-10.7-16.7-3.69-5.77-3.85-8.82-.321-9.62-.321-9.62l11.2-12.5s7.21-7.85 5.13-16c-2.08-8.17-8.49-23.7-8.49-23.7s-.16-3.05 1.76-.641c1.92 2.4 9.14 24.5 9.14 24.5s1.92 5.93-3.37 13.6 7.05 16.5 7.05 16.5 1.6 24.4-3.37 34.8 8.01-15.7 8.01-15.7l.641-5.13s-3.37-3.85.962-6.57 2.24 4.49 2.24 4.49-1.44.641-1.28 1.6c.16.962 1.6 1.12.801 3.05-.801 1.92-12.3 23.9-12.3 23.9l-3.21 7.53z"/><path d="m161 147s-1.35-4.79 2.56-7.05c1.19-.689.481-3.69.481-3.69l2.24.481-.481 3.53s2.72 6.89-4.81 6.73z"/><path d="m24.4 142s17.7 8.8 29.2-8.82c3.4-5.2 15.4-18.4 15.4-18.4s5.07-2.75 7.21-4.65c3.22-2.86 1.34-6.51-3.93-2.64-3.45 2.54-5.85 6.97-5.85 6.97l-14.3 17.3s-10.6 17.9-28.9 7.37c-18.3-10.6 1.12 2.89 1.12 2.89z"/><path d="m178 97.5c.801-.641 13.3-21 13.3-21s6.57-8.17.962-16-16.5-15.4-16.5-15.4-4.33-3.21-4.97 1.6c-.641 4.81-2.85 12.5-4.49 12.5-1.83-.035-5.93-3.53-5.93-3.53l.962-4.33s1.6-4.97-1.76-6.89c-3.37-1.92-9.46-5.93-9.46-5.93s-3.21-1.6-4.97 2.4c-1.76 4.01-1.44 4.17-1.44 4.17s-5.29-2e-6-6.09-1.92c-.801-1.92.481-2.72.321-3.37-.16-.641 1.96-3.16-3.05-4.33-4.81-1.12-11.2-4.64-12.7-.801-4.34 11.4-13.7 3.96-3.78 7.64 28.3 12.4 43.9 28.3 59.6 55.2z"/><path d="m89.5 201c1.62-3.46-2.22-24.9-14-13.4-9.89-10.6-13.6-15.9-13.6-15.9s-18-30.6 1.44-33.3c20.8-7.35 34.5-28.7 34.5-28.7 7.63-10.3-13.4-23.9-25.2-24.7-13.1-.865-22.3 10.8-31.6 23.7-6.41 8.98-4.49.16-4.49.16l6.41-6.57c9.06-12.3 16.1-18.3 30.3-21 14.4-2.78 37.6 13.7 26.6 29.2-4.05 5.7-15.5 19.6-25.3 25.2-9.78 5.61-.962 32.2 4.49 38.9 5.45 6.73 22.4 25 44.1 22.2 14.4-1.82-26.5 6.61-33.6 4.11z"/><path d="m109 197c7.13-17 12.3-25.3 12.3-25.3s1.09-5.62-3.05-2.24c-1.41.808-.16 4.01-.16 4.01s-5.32 13.9-13.5 22.1c4.36 1.53 2.81 1.13 4.33 1.44z"/><path d="m90.1 187s6.09 2.95 10.9-4.01c5.89-8.52 12.1-16.6 15.1-24.5 1.84-4.85-1.45-2.72-2.08-1.12-2.28 5.72-8.17 16.3-14.4 23.7-2.56 3.03-4.03 4.75-12.2 3.21 1.47 1.66 2.72 2.72 2.72 2.72z"/><path d="m74.2 172s4.96 3.61 8.48 2.59c4.97-1.44 25.3-15.2 27.7-21.3s-1.85-3.44-2.08-2.4c-2.02 9.15-22.4 21.5-26 21.3-3.53-.16-8.13-1.52-12.8-13.5s4.62 13.4 4.62 13.4z"/><path d="m70.2 153s1.12 3.05 8.98 1.92c7.85-1.12 18.3-6.41 20.2-8.01 1.92-1.6 7.69-5.61 5.93-7.37-1.76-1.76-2.89 3.69-7.37 6.57-4.61 2.96-21.6 11.5-27.4 4.65-5.77-6.89-.321 2.24-.321 2.24z"/><path d="m71.8 138s16.3 1.12 26-.801c9.62-1.92 5.61-4.97 5.61-4.97s-2.4-.481-4.65 2.56c-2.24 3.05-26.3.801-26.3.801z"/><path d="m93.4 115s8.83 8.7 15.7 9.19c6.89.481 5.61-1.76 5.61-1.76s-2.08-2.08-4.81-.481c-2.72 1.6-14.9-8.22-14.9-8.22z"/><path d="m99.9 97.6s11.4 6.06 12.6 8.95c1.12 2.89 1.52 8.27 7.53 6.09.72-6.03-3.05-1.6-3.05-1.6s-2.08.641-3.37-5.13c-1.28-5.77-15-10.4-15-10.4z"/></g></g></svg>
