<?xml version="1.0" encoding="UTF-8"?>
<svg version="1.1" xmlns="http://www.w3.org/2000/svg" width="192" height="192">
<path d="M0 0 C1.91635217 -0.05423638 3.83314925 -0.09289963 5.75 -0.125 C6.81734375 -0.14820313 7.8846875 -0.17140625 8.984375 -0.1953125 C11.92470106 -0.00487687 13.52361878 0.47329896 16 2 C16 4.64 16 7.28 16 10 C18.3295947 10.50241322 18.3295947 10.50241322 21 10 C23.35322796 7.09587454 23.35322796 7.09587454 25 4 C30.56279194 4.4172094 34.79019762 6.4163696 39 10 C41.28460949 14.29506584 41.11241651 17.32785066 40 22 C41.65 22.99 43.3 23.98 45 25 C47.61047965 20.15196636 49.36041242 15.23272633 51 10 C56.33794733 10.33923404 58.94139055 13.31639532 62.5625 16.875 C63.68725676 17.95733736 64.81352068 19.03811102 65.94140625 20.1171875 C66.46750488 20.62475586 66.99360352 21.13232422 67.53564453 21.65527344 C69.08638005 23.13131554 69.08638005 23.13131554 71.33984375 24.6953125 C73.599524 26.47115533 73.89329758 28.28820031 74.30859375 31.05859375 C74.7988353 40.10577875 70.98220571 47.22682345 65.52734375 54.265625 C60.78151282 60.02624963 60.78151282 60.02624963 58.8359375 67.01953125 C59.35861892 69.78822777 60.13381649 72.3219831 61 75 C65.01091044 97.53108751 60.45844157 120.63604438 47.75 139.6875 C33.46639271 159.27101481 15.25461272 172.89440149 -9 177 C-10.59521484 177.27263672 -10.59521484 177.27263672 -12.22265625 177.55078125 C-30.84853493 179.76585472 -48.27739376 177.84440063 -65 169 C-65.96292969 168.50886719 -66.92585938 168.01773438 -67.91796875 167.51171875 C-86.07799149 157.66818766 -100.07980848 141.05919381 -107.375 121.8125 C-107.61355713 121.18408203 -107.85211426 120.55566406 -108.09790039 119.90820312 C-115.75637685 98.49657542 -113.553291 74.32017953 -104.39453125 53.7890625 C-93.18981634 31.37963268 -75.38579203 16.05574801 -51.875 7.6875 C-42.26728078 4.73809476 -24.62906163 0.18546919 -15 5 C-14.67 4.01 -14.34 3.02 -14 2 C-12.35 2.33 -10.7 2.66 -9 3 C-9 3.66 -9 4.32 -9 5 C-8.21625 4.814375 -7.4325 4.62875 -6.625 4.4375 C-4 4 -4 4 -2 5 C-1.34 3.35 -0.68 1.7 0 0 Z M-76.53710938 31.48779297 C-79.9637183 35.12385503 -83.00329652 39.00604918 -86 43 C-86.57234375 43.73863281 -87.1446875 44.47726563 -87.734375 45.23828125 C-99.01651392 60.85737142 -105.73388935 81.25628474 -103.609375 100.546875 C-103.1429191 103.38559236 -102.62233706 106.19176833 -102 109 C-91.83725819 111.39253359 -91.83725819 111.39253359 -82 109 C-71.43789813 101.58405614 -63.17619238 89.92245691 -55.8125 79.5 C-53.57033287 76.45310987 -51.8035114 74.89494386 -48 74 C-48.5625 76.25 -48.5625 76.25 -50 79 C-51.64692032 79.84026547 -53.29392035 80.68037523 -54.94140625 81.51953125 C-58.72057561 84.23737791 -61.10065886 88.18968945 -63.77734375 91.9453125 C-66.24548737 95.33738335 -68.93104872 98.40888229 -71.78515625 101.4765625 C-73.20782396 102.93586291 -73.20782396 102.93586291 -73 105 C-73.53625 105.2475 -74.0725 105.495 -74.625 105.75 C-77.1683349 107.02918438 -77.1683349 107.02918438 -80 109.0625 C-84.68058965 112.08538081 -88.20937867 112.11790621 -93.75 112.0625 C-94.92046875 112.05347656 -96.0909375 112.04445313 -97.296875 112.03515625 C-98.63492188 112.01775391 -98.63492188 112.01775391 -100 112 C-96.08585439 122.34178668 -90.40464279 133.54426849 -82 141 C-81.34 141 -80.68 141 -80 141 C-79.7834375 141.57492188 -79.566875 142.14984375 -79.34375 142.7421875 C-73.08275466 153.26211572 -51.78795586 163.00702752 -40.375 166.125 C-38.92228304 166.44346348 -37.46573897 166.748177 -36 167 C-35.04170957 162.86470609 -35.04170957 162.86470609 -35.6875 158.75 C-37.3048461 156.59353853 -38.45190157 155.87363375 -41 155 C-44.70955333 154.62904467 -46.76037886 155.27037177 -50 157 C-60.20697579 145.89332118 -70.535836 132.97480484 -70.19921875 117.1796875 C-69.90062705 113.91274297 -69.2670168 112.40441175 -67 110 C-64.97130098 108.96712356 -62.89533522 108.1317089 -60.78515625 107.27734375 C-50.8404865 102.71646435 -40.85247878 95.58004584 -33 88 C-33 87.34 -33 86.68 -33 86 C-32.39671875 85.75378906 -31.7934375 85.50757812 -31.171875 85.25390625 C-27.22747671 82.97665472 -25.65128453 79.11857349 -24 75 C-23.17017458 71.74035899 -22.95336768 69.22175647 -24 66 C-26.32396041 63.15144356 -28.88282803 60.94666763 -32 59 C-32.66 59 -33.32 59 -34 59 C-34 58.34 -34 57.68 -34 57 C-40.46201557 52.62955469 -45.24417211 51.15021022 -53 52 C-53.8146875 52.06058594 -54.629375 52.12117188 -55.46875 52.18359375 C-68.41939901 53.84340794 -77.28168967 64.69852111 -84.890625 74.4140625 C-86.28601705 76.25937068 -87.65786787 78.11575175 -89 80 C-87.53696181 75.51113283 -85.04512067 72.27273536 -82 68.75 C-81.51233154 68.18297363 -81.02466309 67.61594727 -80.5222168 67.03173828 C-71.87165375 57.14098622 -64.55489575 50.21025855 -51 49 C-49.80375 48.855625 -48.6075 48.71125 -47.375 48.5625 C-41.16590841 48.61139048 -35.25335938 51.94174121 -30 55 C-29.34 55.99 -28.68 56.98 -28 58 C-27.34 58 -26.68 58 -26 58 C-26 58.66 -26 59.32 -26 60 C-24.66710346 61.50014391 -24.66710346 61.50014391 -23 63 C-22.55527344 63.474375 -22.11054687 63.94875 -21.65234375 64.4375 C-19.27581399 66.68480946 -16.55044024 68.16540052 -13.7421875 69.81640625 C-12 71 -12 71 -11 73 C-10.34 73 -9.68 73 -9 73 C-8.505 75.475 -8.505 75.475 -8 78 C-5 79.33333333 -5 79.33333333 -2 78 C-2.99 78.99 -3.98 79.98 -5 81 C-9.29123387 78.85438306 -10.29796128 77.36147421 -12 73 C-14.8302055 70.31875268 -17.10351684 68.57725676 -21 68 C-21.37125 69.485 -21.37125 69.485 -21.75 71 C-22.78870448 74.69568044 -24.38015165 77.92882186 -26.1953125 81.30078125 C-27.14266568 82.98790604 -27.14266568 82.98790604 -27 85 C-21.95693082 88.75298171 -18.03412563 91.39462596 -11.6875 90.625 C-9.8621875 90.315625 -9.8621875 90.315625 -8 90 C-8.33 90.66 -8.66 91.32 -9 92 C-11.3140622 92.73075648 -13.64828869 93.40138258 -16 94 C-16 93.34 -16 92.68 -16 92 C-16.60328125 91.73445313 -17.2065625 91.46890625 -17.828125 91.1953125 C-18.62734375 90.84210938 -19.4265625 90.48890625 -20.25 90.125 C-21.03890625 89.77695313 -21.8278125 89.42890625 -22.640625 89.0703125 C-25 88 -25 88 -27.171875 86.8046875 C-27.77515625 86.53914063 -28.3784375 86.27359375 -29 86 C-29.99 86.495 -29.99 86.495 -31 87 C-31 87.66 -31 88.32 -31 89 C-31.58007812 89.25007813 -32.16015625 89.50015625 -32.7578125 89.7578125 C-35.29566115 91.16379834 -36.89166264 92.76421928 -38.875 94.875 C-42.05096931 98.15207694 -45.14565502 100.59103439 -49 103 C-49 103.33 -49 103.66 -49 104 C-39.34988268 105.77247053 -28.65913293 105.95568839 -20 101 C-24.23696745 105.42955688 -28.06240149 105.58519545 -34 106 C-38.17210871 106.05084937 -42.34031082 105.93078641 -46.50976562 105.78515625 C-47.31994141 105.77097656 -48.13011719 105.75679688 -48.96484375 105.7421875 C-49.6930835 105.7201123 -50.42132324 105.69803711 -51.17163086 105.67529297 C-51.77499268 105.78244629 -52.37835449 105.88959961 -53 106 C-55.39652893 109.5947934 -55.1385371 110.85505219 -54.75 115.0625 C-54.66234375 116.12597656 -54.5746875 117.18945312 -54.484375 118.28515625 C-54.24220074 121.13907608 -54.24220074 121.13907608 -52 123 C-45.91926535 123.66094942 -41.37817447 121.95539197 -35.875 119.6875 C-35.08996094 119.37876953 -34.30492188 119.07003906 -33.49609375 118.75195312 C-25.71929178 115.77186401 -25.71929178 115.77186401 -20 110 C-19.01 109.67 -18.02 109.34 -17 109 C-26.06346337 118.91316307 -38.95435326 124.16287953 -52.3046875 124.95703125 C-52.86414062 124.97121094 -53.42359375 124.98539062 -54 125 C-53.23970843 127.2748645 -52.4673838 129.54435657 -51.6875 131.8125 C-51.47416016 132.45509766 -51.26082031 133.09769531 -51.04101562 133.75976562 C-49.52540646 138.12562487 -48.34875231 140.74662994 -44.2578125 142.9296875 C-40.57682801 143.04432023 -37.89402744 141.01700465 -34.875 139.125 C-33.88064941 138.51350098 -33.88064941 138.51350098 -32.86621094 137.88964844 C-25.22297111 133.06214408 -18.63647027 127.83403597 -14 120 C-13.34 119.67 -12.68 119.34 -12 119 C-12.495 119.78375 -12.99 120.5675 -13.5 121.375 C-15.16537965 123.78552327 -15.16537965 123.78552327 -15 126 C-15.57492188 126.25265625 -16.14984375 126.5053125 -16.7421875 126.765625 C-19.27097581 128.14814594 -21.03935694 129.76440624 -23.125 131.75 C-29.35364635 137.40401011 -36.42767277 141.41310815 -44 145 C-42.03689445 147.69599829 -40.03067078 150.35458521 -38 153 C-37.360625 153.845625 -36.72125 154.69125 -36.0625 155.5625 C-33.96359936 157.28504171 -33.96359936 157.28504171 -30.6875 157.25 C-20.44832687 153.77909386 -14.76648713 140.09448589 -10 131 C-9.61457031 130.02417969 -9.22914062 129.04835938 -8.83203125 128.04296875 C-8 126 -8 126 -6 125 C-9.65949916 132.99344526 -13.71948098 140.43161035 -18.6875 147.6875 C-19.15067627 148.37005859 -19.61385254 149.05261719 -20.09106445 149.75585938 C-23.19288144 154.19419538 -25.72089003 157.24029668 -31 159 C-30.28995535 162.27856999 -30.28995535 162.27856999 -27.0625 163.5625 C-26.051875 164.036875 -25.04125 164.51125 -24 165 C-23.34 165.66 -22.68 166.32 -22 167 C-19.58582128 167.58402133 -19.58582128 167.58402133 -17 167 C-13.38225232 163.14502296 -11.17106397 158.76375645 -8.875 154.0625 C-8.52824219 153.37220703 -8.18148437 152.68191406 -7.82421875 151.97070312 C-6.27944453 148.84860198 -4.96165145 145.88187037 -3.8828125 142.55859375 C-3 140 -3 140 -1 139 C-3.62057852 146.17210963 -6.88647369 152.9396593 -10.35742188 159.72851562 C-12.18489014 162.7241777 -12.18489014 162.7241777 -13 166 C-4.44038266 165.48177682 3.66496049 164.98574487 9.75 158.375 C15.80705154 151.14382895 15.80705154 151.14382895 17.73046875 142.43359375 C15.94126353 136.47276566 11.93416758 131.30909507 8.46484375 126.2109375 C7.98144531 125.48132813 7.49804688 124.75171875 7 124 C6.45730469 123.21496094 5.91460937 122.42992187 5.35546875 121.62109375 C2.79417588 116.6682767 3.07257827 111.40125191 4 106 C5.88153738 102.77671056 8.23844104 100.48062114 11 98 C15.77095962 92.52742867 20.99794897 85.860845 20.49609375 78.2265625 C19.61516434 74.27278484 17.95619776 70.66383494 16.30859375 66.9765625 C14.58908969 63.06533237 13.27928818 59.07124819 12 55 C11.67 54.01 11.34 53.02 11 52 C13.95725211 54.47973548 14.81812015 56.84880393 15.9375 60.5 C17.25042538 64.68716743 18.66391879 68.78369512 20.25 72.875 C21.65694153 76.75104049 22.67720882 79.84000298 22 84 C21.505 84.94875 21.01 85.8975 20.5 86.875 C18.35978825 91.33377447 18.27168451 95.30312161 19.5390625 99.99609375 C20.61593249 102.84210731 21.41647355 104.66933501 24.109375 106.1953125 C24.73328125 106.46085937 25.3571875 106.72640625 26 107 C26.20923895 118.55463979 26.1142071 129.59838312 24 141 C29.13055227 134.44347762 31.53504049 128.54258138 31.04296875 120.1640625 C31 118 31 118 32 115 C32.66 115 33.32 115 34 115 C33.72055603 127.90523047 28.32612721 137.84179133 21.94726562 148.74487305 C19.76078678 152.14478035 19.76078678 152.14478035 19 156 C23.78050456 154.50997261 26.74468917 151.85538953 30.3125 148.5 C30.86228516 148.00113281 31.41207031 147.50226563 31.97851562 146.98828125 C33.36326881 145.70501929 34.68719343 144.35677617 36 143 C36 142.34 36 141.68 36 141 C36.66 141 37.32 141 38 141 C49.44751726 126.46948693 53.11320246 108.0411545 51.75 89.875 C51.53039883 88.24561351 51.27800505 86.62044383 51 85 C50.82597656 83.97003906 50.65195313 82.94007812 50.47265625 81.87890625 C45.19126957 54.34694373 31.02395599 36.22682464 9.17578125 19.03125 C1.98154895 14.42977301 -5.73176664 14.44247597 -14.0625 13.875 C-15.79983398 13.74544922 -15.79983398 13.74544922 -17.57226562 13.61328125 C-37.27128227 12.18762008 -61.78790294 17.21179805 -76.53710938 31.48779297 Z " fill="#FFFFFF" transform="translate(115,7)"/>
<path d="M0 0 C0.66 0 1.32 0 2 0 C3.20798319 6.28151261 3.20798319 6.28151261 2.3125 9.375 C0.6818563 11.3938922 -0.469528 11.66260373 -3 12 C-3.29162929 7.04230204 -3.12940055 3.97193147 0 0 Z " fill="#FFFFFF" transform="translate(158,113)"/>
<path d="M0 0 C0.66 0 1.32 0 2 0 C2 0.66 2 1.32 2 2 C1.34 2 0.68 2 0 2 C0 1.34 0 0.68 0 0 Z " fill="#FFFFFF" transform="translate(123,52)"/>
<path d="" fill="#FFFFFF" transform="translate(0,0)"/>
</svg>
